<svg width="24" height="24" viewBox="0 0 24 24" fill="white" xmlns="http://www.w3.org/2000/svg">
<path d="M12 .5C5.65.5.5 5.65.5 12c0 5.1 3.3 9.4 7.85 10.95.57.1.78-.25.78-.55v-2.1c-3.2.7-3.87-1.55-3.87-1.55-.52-1.3-1.28-1.65-1.28-1.65-1.05-.7.08-.68.08-.68 1.15.1 1.75 1.2 1.75 1.2 1.03 1.75 2.7 1.25 3.35.95.1-.75.4-1.25.72-1.55-2.55-.28-5.23-1.28-5.23-5.7 0-1.25.45-2.3 1.2-3.1-.12-.3-.53-1.48.12-3.08 0 0 .98-.32 3.2 1.2a11.1 11.1 0 0 1 5.8 0c2.2-1.52 3.18-1.2 3.18-1.2.65 1.6.24 2.78.12 3.08.75.8 1.2 1.85 1.2 3.1 0 4.43-2.68 5.4-5.25 5.68.42.35.78 1.05.78 2.15v3.18c0 .3.2.65.78.55A10.98 10.98 0 0 0 23.5 12C23.5 5.65 18.35.5 12 .5Z"></path>
</svg>
